<mxfile host="Electron" agent="Mozilla/5.0 (Macintosh; Intel Mac OS X 10_15_7) AppleWebKit/537.36 (KHTML, like Gecko) draw.io/26.0.16 Chrome/132.0.6834.196 Electron/34.2.0 Safari/537.36" version="26.0.16">
  <diagram name="Page-1" id="ZqCd0pRORCUUzhp86Xhz">
    <mxGraphModel dx="1061" dy="2129" grid="0" gridSize="10" guides="1" tooltips="1" connect="1" arrows="1" fold="1" page="0" pageScale="1" pageWidth="827" pageHeight="1169" math="0" shadow="0">
      <root>
        <mxCell id="0" />
        <mxCell id="1" parent="0" />
        <mxCell id="TgJmssvN7cv9_7AFx3sr-1" value="" style="group" parent="1" vertex="1" connectable="0">
          <mxGeometry x="60" y="-1090" width="1060" height="860" as="geometry" />
        </mxCell>
        <mxCell id="TgJmssvN7cv9_7AFx3sr-2" value="" style="group" parent="TgJmssvN7cv9_7AFx3sr-1" vertex="1" connectable="0">
          <mxGeometry y="400" width="1060" height="460" as="geometry" />
        </mxCell>
        <mxCell id="TgJmssvN7cv9_7AFx3sr-3" value="" style="rounded=1;whiteSpace=wrap;html=1;sketch=0;fontFamily=Montserrat;fontSource=https%3A%2F%2Ffonts.googleapis.com%2Fcss%3Ffamily%3DMontserrat;fontSize=20;align=center;dashed=1;strokeWidth=4;glass=0;arcSize=15;strokeColor=#ADADAC;fillColor=#D6D6D6;perimeterSpacing=0;" parent="TgJmssvN7cv9_7AFx3sr-2" vertex="1">
          <mxGeometry width="1060" height="460" as="geometry" />
        </mxCell>
        <mxCell id="TgJmssvN7cv9_7AFx3sr-4" value="" style="group" parent="TgJmssvN7cv9_7AFx3sr-2" vertex="1" connectable="0">
          <mxGeometry x="260" y="70" width="200" height="80" as="geometry" />
        </mxCell>
        <mxCell id="TgJmssvN7cv9_7AFx3sr-5" value="" style="rounded=1;whiteSpace=wrap;html=1;strokeWidth=2;strokeColor=#7C7C7B;gradientDirection=south;arcSize=50;imageHeight=24;perimeterSpacing=10;" parent="TgJmssvN7cv9_7AFx3sr-4" vertex="1">
          <mxGeometry width="200" height="80" as="geometry" />
        </mxCell>
        <mxCell id="TgJmssvN7cv9_7AFx3sr-6" value="&lt;font face=&quot;Roboto&quot; style=&quot;font-size: 24px&quot;&gt;VM&lt;/font&gt;" style="text;strokeColor=none;fillColor=none;align=center;verticalAlign=middle;rounded=0;sketch=0;fontFamily=Montserrat;fontSource=https%3A%2F%2Ffonts.googleapis.com%2Fcss%3Ffamily%3DMontserrat;fontStyle=1;fontSize=24;spacing=0;html=1;" parent="TgJmssvN7cv9_7AFx3sr-4" vertex="1">
          <mxGeometry x="80" y="14" width="110" height="21" as="geometry" />
        </mxCell>
        <mxCell id="TgJmssvN7cv9_7AFx3sr-7" value="&lt;span style=&quot;color: rgb(218, 41, 28); font-size: 18px; font-weight: normal;&quot;&gt;&lt;font face=&quot;Roboto&quot;&gt;Server&lt;/font&gt;&lt;/span&gt;" style="text;strokeColor=none;fillColor=none;align=center;verticalAlign=middle;rounded=0;sketch=0;fontFamily=Abel;fontSource=https%3A%2F%2Ffonts.googleapis.com%2Fcss%3Ffamily%3DAbel;fontStyle=1;fontSize=16;spacing=0;html=1;" parent="TgJmssvN7cv9_7AFx3sr-4" vertex="1">
          <mxGeometry x="80" y="43" width="110" height="21" as="geometry" />
        </mxCell>
        <mxCell id="TgJmssvN7cv9_7AFx3sr-8" value="" style="endArrow=none;html=1;fontSize=20;fontColor=#E42313;strokeColor=#E42313;align=center;rounded=0;" parent="TgJmssvN7cv9_7AFx3sr-4" edge="1">
          <mxGeometry width="50" height="50" as="geometry">
            <mxPoint x="80" y="39.75" as="sourcePoint" />
            <mxPoint x="190" y="39.75" as="targetPoint" />
          </mxGeometry>
        </mxCell>
        <mxCell id="TgJmssvN7cv9_7AFx3sr-9" value="" style="shape=image;verticalLabelPosition=bottom;verticalAlign=top;imageAspect=0;aspect=fixed;image=data:image/svg+xml,PHN2ZyB4bWxucz0iaHR0cDovL3d3dy53My5vcmcvMjAwMC9zdmciIHZpZXdCb3g9IjAgMCA2Mi4zNjIyIDYyLjM2MjIiIHZlcnNpb249IjEuMSI+JiN4YTsgIDxkZWZzPiYjeGE7ICAgIDxzdHlsZT4mI3hhOyAgICAgIC5jbHMtMSB7JiN4YTsgICAgICAgIGZpbGw6ICNmZmY7JiN4YTsgICAgICB9JiN4YTsmI3hhOyAgICAgIC5jbHMtMiB7JiN4YTsgICAgICAgIGZpbGw6ICNkYTI5MWM7JiN4YTsgICAgICB9JiN4YTsgICAgPC9zdHlsZT4mI3hhOyAgPC9kZWZzPiYjeGE7ICAmI3hhOyAgPGc+JiN4YTsgICAgPGcgaWQ9IkViZW5lXzIiPiYjeGE7ICAgICAgPHBhdGggZD0iTTMxLjMxNDksNjIuMzYyMkMxMy40ODI4LDYyLjM2MjIsMCw0Ny41OTA1LDAsMzEuMzE0OCwwLDEyLjYzMjksMTUuNTU3MSwwLDMxLjA4MDcsMGMxOC42MDE2LDAsMzEuMjgxNSwxNS4zMzk5LDMxLjI4MTUsMzAuOTQ3MiwwLDE5LjA0OTUtMTUuNjU3NSwzMS40MTUtMzEuMDQ3MywzMS40MTVoMFoiIGNsYXNzPSJjbHMtMiIvPiYjeGE7ICAgICAgPGc+JiN4YTsgICAgICAgIDxwYXRoIGQ9Ik00Mi4zMjQyLDQyLjg1MDVoLTIyLjI4NjFjLTIuNzQwNywwLTQuOTcwMi0yLjIyOTUtNC45NzAyLTQuOTcwN3YtMTUuOTc0NmMwLTIuNzQwNywyLjIyOTUtNC45NzAyLDQuOTcwMi00Ljk3MDJoMjIuMjg2MWMyLjc0MDIsMCw0Ljk2OTcsMi4yMjk1LDQuOTY5Nyw0Ljk3MDJ2MTUuOTc0NmMwLDIuNzQxMi0yLjIyOTUsNC45NzA3LTQuOTY5Nyw0Ljk3MDdaTTIwLjAzODEsMTguOTM0OWMtMS42Mzc3LDAtMi45NzAyLDEuMzMyNS0yLjk3MDIsMi45NzAydjE1Ljk3NDZjMCwxLjYzNzcsMS4zMzI1LDIuOTcwNywyLjk3MDIsMi45NzA3aDIyLjI4NjFjMS42Mzc3LDAsMi45Njk3LTEuMzMzLDIuOTY5Ny0yLjk3MDd2LTE1Ljk3NDZjMC0xLjYzNzctMS4zMzItMi45NzAyLTIuOTY5Ny0yLjk3MDJoLTIyLjI4NjFaIiBjbGFzcz0iY2xzLTEiLz4mI3hhOyAgICAgICAgPHBhdGggZD0iTTM2LjI4NjEsNDYuODQ0NmgtMTAuMjFjLS41NTIyLDAtMS0uNDQ3My0xLTFzLjQ0NzgtMSwxLTFoMTAuMjFjLjU1MjcsMCwxLC40NDczLDEsMXMtLjQ0NzMsMS0xLDFaIiBjbGFzcz0iY2xzLTEiLz4mI3hhOyAgICAgIDwvZz4mI3hhOyAgICA8L2c+JiN4YTsgIDwvZz4mI3hhOzwvc3ZnPg==;" parent="TgJmssvN7cv9_7AFx3sr-4" vertex="1">
          <mxGeometry x="10" y="9" width="62" height="62" as="geometry" />
        </mxCell>
        <mxCell id="TgJmssvN7cv9_7AFx3sr-10" value="" style="group" parent="TgJmssvN7cv9_7AFx3sr-2" vertex="1" connectable="0">
          <mxGeometry x="500" y="190" width="200" height="80" as="geometry" />
        </mxCell>
        <mxCell id="TgJmssvN7cv9_7AFx3sr-11" value="" style="rounded=1;whiteSpace=wrap;html=1;strokeWidth=2;strokeColor=#7C7C7B;gradientDirection=south;arcSize=50;imageHeight=24;perimeterSpacing=10;" parent="TgJmssvN7cv9_7AFx3sr-10" vertex="1">
          <mxGeometry width="200" height="80" as="geometry" />
        </mxCell>
        <mxCell id="TgJmssvN7cv9_7AFx3sr-12" value="&lt;font face=&quot;Roboto&quot; style=&quot;font-size: 24px&quot;&gt;NLB&lt;/font&gt;" style="text;strokeColor=none;fillColor=none;align=center;verticalAlign=middle;rounded=0;sketch=0;fontFamily=Montserrat;fontSource=https%3A%2F%2Ffonts.googleapis.com%2Fcss%3Ffamily%3DMontserrat;fontStyle=1;fontSize=24;spacing=0;html=1;" parent="TgJmssvN7cv9_7AFx3sr-10" vertex="1">
          <mxGeometry x="80" y="25" width="110" height="21" as="geometry" />
        </mxCell>
        <mxCell id="TgJmssvN7cv9_7AFx3sr-13" value="" style="endArrow=none;html=1;fontSize=20;fontColor=#E42313;strokeColor=#E42313;align=center;rounded=0;" parent="TgJmssvN7cv9_7AFx3sr-10" edge="1">
          <mxGeometry width="50" height="50" as="geometry">
            <mxPoint x="80" y="50.75" as="sourcePoint" />
            <mxPoint x="190" y="50.75" as="targetPoint" />
          </mxGeometry>
        </mxCell>
        <mxCell id="TgJmssvN7cv9_7AFx3sr-14" value="" style="shape=image;verticalLabelPosition=bottom;verticalAlign=top;imageAspect=0;aspect=fixed;image=data:image/svg+xml,PHN2ZyB4bWxucz0iaHR0cDovL3d3dy53My5vcmcvMjAwMC9zdmciIHZpZXdCb3g9IjAgLTAuMDAwMjE5ODgyMTc0ODYwNjg2MDYgNjIuMzc5MTIzNjg3NzQ0MTQgNjIuMzYyNDIyOTQzMTE1MjM0IiB3aWR0aD0iNjIuMzc5MTIzNjg3NzQ0MTQiIGhlaWdodD0iNjIuMzYyNDIyOTQzMTE1MjM0Ij48ZGVmcz48c3R5bGU+LmNscy0xe2ZpbGw6I2RhMjkxYzt9LmNscy0ye2ZpbGw6I2ZmZjt9PC9zdHlsZT48L2RlZnM+PGcgaWQ9IkViZW5lXzIiIGRhdGEtbmFtZT0iRWJlbmUgMiI+PHBhdGggY2xhc3M9ImNscy0xIiBkPSJNMzEuMzE0OSw2Mi4zNjIyQTMxLjM5NDUsMzEuMzk0NSwwLDAsMSwwLDMxLjMxNDhDMCwxMi42MzI5LDE1LjU1NzEsMCwzMS4wODA3LDBhMzEuMTgxMywzMS4xODEzLDAsMCwxLC4yMzQyLDYyLjM2MjJaIi8+PHBhdGggY2xhc3M9ImNscy0yIiBkPSJNNTIuMzYxOCwyNi45MDA2bC0yLjc4Mi4wMDY2LDMuMzIsMy4yNjg1LTYuODE3LjAxNzhhMTcuMjAyOSwxNy4yMDI5LDAsMCwwLTQuMTctMTAuMzAzMmw0Ljc4NS00Ljc4NTYtLjAyNTYsNC42Nkw0OC42NCwxNy43OTcybC0uMDIwOS02LjAzMTQtNi4wMjYxLS4wMTQ5LTEuOTY2OSwxLjk2NzUsNC42NTktLjAyNjMtNC43NjczLDQuNzY3M2ExNy4yOTkyLDE3LjI5OTIsMCwxLDAsLjAyNywyNS40MTQ5bDQuNzk0Miw0Ljc5NDMtNC42NTktLjAyNTQsMS45NjY4LDEuOTY4MSw2LjAzMTYtLjAyMTMuMDE1NS02LjAyNTUtMS45Njc5LTEuOTY4MS4wMjU2LDQuNjYwNi00LjgxNDktNC44MTU1YTE3LjIwMzYsMTcuMjAzNiwwLDAsMCw0LjE0NDktMTAuMjVsNi44MjI4LS4wMTg1LTMuMzA2LDMuMjg0NSwyLjc4MjctLjAwNiw0LjI0MDYtNC4yODlaTTI4LjgzMzYsNDYuNDc4NUExNS4yOTkzLDE1LjI5OTMsMCwxLDEsNDQuMTMyOSwzMS4xNzkyLDE1LjMxNjcsMTUuMzE2NywwLDAsMSwyOC44MzM2LDQ2LjQ3ODVaIi8+PC9nPjwvc3ZnPg==" parent="TgJmssvN7cv9_7AFx3sr-10" vertex="1">
          <mxGeometry x="11" y="9" width="62" height="62" as="geometry" />
        </mxCell>
        <mxCell id="TgJmssvN7cv9_7AFx3sr-15" value="" style="group" parent="TgJmssvN7cv9_7AFx3sr-2" vertex="1" connectable="0">
          <mxGeometry x="260" y="310" width="200" height="80" as="geometry" />
        </mxCell>
        <mxCell id="TgJmssvN7cv9_7AFx3sr-16" value="" style="rounded=1;whiteSpace=wrap;html=1;strokeWidth=2;strokeColor=#7C7C7B;gradientDirection=south;arcSize=50;imageHeight=24;perimeterSpacing=10;" parent="TgJmssvN7cv9_7AFx3sr-15" vertex="1">
          <mxGeometry width="200" height="80" as="geometry" />
        </mxCell>
        <mxCell id="TgJmssvN7cv9_7AFx3sr-17" value="&lt;font face=&quot;Roboto&quot; style=&quot;font-size: 24px&quot;&gt;VM&lt;/font&gt;" style="text;strokeColor=none;fillColor=none;align=center;verticalAlign=middle;rounded=0;sketch=0;fontFamily=Montserrat;fontSource=https%3A%2F%2Ffonts.googleapis.com%2Fcss%3Ffamily%3DMontserrat;fontStyle=1;fontSize=24;spacing=0;html=1;" parent="TgJmssvN7cv9_7AFx3sr-15" vertex="1">
          <mxGeometry x="80" y="14" width="110" height="21" as="geometry" />
        </mxCell>
        <mxCell id="TgJmssvN7cv9_7AFx3sr-18" value="&lt;span style=&quot;color: rgb(218, 41, 28); font-size: 18px; font-weight: normal;&quot;&gt;&lt;font face=&quot;Roboto&quot;&gt;Server&lt;/font&gt;&lt;/span&gt;" style="text;strokeColor=none;fillColor=none;align=center;verticalAlign=middle;rounded=0;sketch=0;fontFamily=Abel;fontSource=https%3A%2F%2Ffonts.googleapis.com%2Fcss%3Ffamily%3DAbel;fontStyle=1;fontSize=16;spacing=0;html=1;" parent="TgJmssvN7cv9_7AFx3sr-15" vertex="1">
          <mxGeometry x="80" y="43" width="110" height="21" as="geometry" />
        </mxCell>
        <mxCell id="TgJmssvN7cv9_7AFx3sr-19" value="" style="endArrow=none;html=1;fontSize=20;fontColor=#E42313;strokeColor=#E42313;align=center;rounded=0;" parent="TgJmssvN7cv9_7AFx3sr-15" edge="1">
          <mxGeometry width="50" height="50" as="geometry">
            <mxPoint x="80" y="39.75" as="sourcePoint" />
            <mxPoint x="190" y="39.75" as="targetPoint" />
          </mxGeometry>
        </mxCell>
        <mxCell id="TgJmssvN7cv9_7AFx3sr-20" value="" style="shape=image;verticalLabelPosition=bottom;verticalAlign=top;imageAspect=0;aspect=fixed;image=data:image/svg+xml,PHN2ZyB4bWxucz0iaHR0cDovL3d3dy53My5vcmcvMjAwMC9zdmciIHZpZXdCb3g9IjAgMCA2Mi4zNjIyIDYyLjM2MjIiIHZlcnNpb249IjEuMSI+JiN4YTsgIDxkZWZzPiYjeGE7ICAgIDxzdHlsZT4mI3hhOyAgICAgIC5jbHMtMSB7JiN4YTsgICAgICAgIGZpbGw6ICNmZmY7JiN4YTsgICAgICB9JiN4YTsmI3hhOyAgICAgIC5jbHMtMiB7JiN4YTsgICAgICAgIGZpbGw6ICNkYTI5MWM7JiN4YTsgICAgICB9JiN4YTsgICAgPC9zdHlsZT4mI3hhOyAgPC9kZWZzPiYjeGE7ICAmI3hhOyAgPGc+JiN4YTsgICAgPGcgaWQ9IkViZW5lXzIiPiYjeGE7ICAgICAgPHBhdGggZD0iTTMxLjMxNDksNjIuMzYyMkMxMy40ODI4LDYyLjM2MjIsMCw0Ny41OTA1LDAsMzEuMzE0OCwwLDEyLjYzMjksMTUuNTU3MSwwLDMxLjA4MDcsMGMxOC42MDE2LDAsMzEuMjgxNSwxNS4zMzk5LDMxLjI4MTUsMzAuOTQ3MiwwLDE5LjA0OTUtMTUuNjU3NSwzMS40MTUtMzEuMDQ3MywzMS40MTVoMFoiIGNsYXNzPSJjbHMtMiIvPiYjeGE7ICAgICAgPGc+JiN4YTsgICAgICAgIDxwYXRoIGQ9Ik00Mi4zMjQyLDQyLjg1MDVoLTIyLjI4NjFjLTIuNzQwNywwLTQuOTcwMi0yLjIyOTUtNC45NzAyLTQuOTcwN3YtMTUuOTc0NmMwLTIuNzQwNywyLjIyOTUtNC45NzAyLDQuOTcwMi00Ljk3MDJoMjIuMjg2MWMyLjc0MDIsMCw0Ljk2OTcsMi4yMjk1LDQuOTY5Nyw0Ljk3MDJ2MTUuOTc0NmMwLDIuNzQxMi0yLjIyOTUsNC45NzA3LTQuOTY5Nyw0Ljk3MDdaTTIwLjAzODEsMTguOTM0OWMtMS42Mzc3LDAtMi45NzAyLDEuMzMyNS0yLjk3MDIsMi45NzAydjE1Ljk3NDZjMCwxLjYzNzcsMS4zMzI1LDIuOTcwNywyLjk3MDIsMi45NzA3aDIyLjI4NjFjMS42Mzc3LDAsMi45Njk3LTEuMzMzLDIuOTY5Ny0yLjk3MDd2LTE1Ljk3NDZjMC0xLjYzNzctMS4zMzItMi45NzAyLTIuOTY5Ny0yLjk3MDJoLTIyLjI4NjFaIiBjbGFzcz0iY2xzLTEiLz4mI3hhOyAgICAgICAgPHBhdGggZD0iTTM2LjI4NjEsNDYuODQ0NmgtMTAuMjFjLS41NTIyLDAtMS0uNDQ3My0xLTFzLjQ0NzgtMSwxLTFoMTAuMjFjLjU1MjcsMCwxLC40NDczLDEsMXMtLjQ0NzMsMS0xLDFaIiBjbGFzcz0iY2xzLTEiLz4mI3hhOyAgICAgIDwvZz4mI3hhOyAgICA8L2c+JiN4YTsgIDwvZz4mI3hhOzwvc3ZnPg==;" parent="TgJmssvN7cv9_7AFx3sr-15" vertex="1">
          <mxGeometry x="10" y="9" width="62" height="62" as="geometry" />
        </mxCell>
        <mxCell id="TgJmssvN7cv9_7AFx3sr-21" value="" style="endArrow=block;html=1;strokeWidth=3;endFill=0;fontSize=20;fontColor=#E42313;targetPerimeterSpacing=10;sourcePerimeterSpacing=10;strokeColor=#DA291C;rounded=0;curved=1;" parent="TgJmssvN7cv9_7AFx3sr-2" target="TgJmssvN7cv9_7AFx3sr-5" edge="1">
          <mxGeometry width="50" height="50" relative="1" as="geometry">
            <mxPoint x="240" y="221" as="sourcePoint" />
            <mxPoint x="360" y="142" as="targetPoint" />
            <Array as="points">
              <mxPoint x="360" y="212" />
            </Array>
          </mxGeometry>
        </mxCell>
        <mxCell id="TgJmssvN7cv9_7AFx3sr-22" value="" style="endArrow=block;html=1;strokeWidth=3;endFill=0;fontSize=20;fontColor=#E42313;targetPerimeterSpacing=10;sourcePerimeterSpacing=10;strokeColor=#DA291C;rounded=0;curved=1;" parent="TgJmssvN7cv9_7AFx3sr-2" target="TgJmssvN7cv9_7AFx3sr-16" edge="1">
          <mxGeometry width="50" height="50" relative="1" as="geometry">
            <mxPoint x="240" y="238.5" as="sourcePoint" />
            <mxPoint x="360" y="317" as="targetPoint" />
            <Array as="points">
              <mxPoint x="360" y="247" />
            </Array>
          </mxGeometry>
        </mxCell>
        <mxCell id="TgJmssvN7cv9_7AFx3sr-23" value="" style="endArrow=block;html=1;strokeWidth=3;endFill=0;fontSize=20;fontColor=#E42313;targetPerimeterSpacing=10;sourcePerimeterSpacing=10;strokeColor=#DA291C;rounded=0;curved=1;" parent="TgJmssvN7cv9_7AFx3sr-2" source="TgJmssvN7cv9_7AFx3sr-5" target="TgJmssvN7cv9_7AFx3sr-11" edge="1">
          <mxGeometry width="50" height="50" relative="1" as="geometry">
            <mxPoint x="500" y="101" as="sourcePoint" />
            <mxPoint x="620" y="50" as="targetPoint" />
            <Array as="points">
              <mxPoint x="540" y="110" />
            </Array>
          </mxGeometry>
        </mxCell>
        <mxCell id="TgJmssvN7cv9_7AFx3sr-24" value="" style="endArrow=block;html=1;strokeWidth=3;endFill=0;fontSize=20;fontColor=#E42313;targetPerimeterSpacing=10;sourcePerimeterSpacing=10;strokeColor=#DA291C;rounded=0;curved=1;" parent="TgJmssvN7cv9_7AFx3sr-2" source="TgJmssvN7cv9_7AFx3sr-16" target="TgJmssvN7cv9_7AFx3sr-11" edge="1">
          <mxGeometry width="50" height="50" relative="1" as="geometry">
            <mxPoint x="490" y="120" as="sourcePoint" />
            <mxPoint x="590" y="180" as="targetPoint" />
            <Array as="points">
              <mxPoint x="540" y="350" />
            </Array>
          </mxGeometry>
        </mxCell>
        <mxCell id="TgJmssvN7cv9_7AFx3sr-25" value="" style="group" parent="TgJmssvN7cv9_7AFx3sr-2" vertex="1" connectable="0">
          <mxGeometry x="820" y="70" width="200" height="80" as="geometry" />
        </mxCell>
        <mxCell id="TgJmssvN7cv9_7AFx3sr-26" value="" style="rounded=1;whiteSpace=wrap;html=1;strokeWidth=2;strokeColor=#7C7C7B;gradientDirection=south;arcSize=50;imageHeight=24;perimeterSpacing=10;" parent="TgJmssvN7cv9_7AFx3sr-25" vertex="1">
          <mxGeometry width="200" height="80" as="geometry" />
        </mxCell>
        <mxCell id="TgJmssvN7cv9_7AFx3sr-27" value="&lt;font face=&quot;Roboto&quot; style=&quot;font-size: 24px&quot;&gt;Kafka&lt;/font&gt;" style="text;strokeColor=none;fillColor=none;align=center;verticalAlign=middle;rounded=0;sketch=0;fontFamily=Montserrat;fontSource=https%3A%2F%2Ffonts.googleapis.com%2Fcss%3Ffamily%3DMontserrat;fontStyle=1;fontSize=24;spacing=0;html=1;" parent="TgJmssvN7cv9_7AFx3sr-25" vertex="1">
          <mxGeometry x="80" y="14" width="110" height="21" as="geometry" />
        </mxCell>
        <mxCell id="TgJmssvN7cv9_7AFx3sr-28" value="&lt;span style=&quot;color: rgb(218, 41, 28); font-size: 18px; font-weight: normal;&quot;&gt;&lt;font face=&quot;Roboto&quot;&gt;Database&lt;/font&gt;&lt;/span&gt;" style="text;strokeColor=none;fillColor=none;align=center;verticalAlign=middle;rounded=0;sketch=0;fontFamily=Abel;fontSource=https%3A%2F%2Ffonts.googleapis.com%2Fcss%3Ffamily%3DAbel;fontStyle=1;fontSize=16;spacing=0;html=1;" parent="TgJmssvN7cv9_7AFx3sr-25" vertex="1">
          <mxGeometry x="80" y="43" width="110" height="21" as="geometry" />
        </mxCell>
        <mxCell id="TgJmssvN7cv9_7AFx3sr-29" value="" style="endArrow=none;html=1;fontSize=20;fontColor=#E42313;strokeColor=#E42313;align=center;rounded=0;" parent="TgJmssvN7cv9_7AFx3sr-25" edge="1">
          <mxGeometry width="50" height="50" as="geometry">
            <mxPoint x="80" y="39.75" as="sourcePoint" />
            <mxPoint x="190" y="39.75" as="targetPoint" />
          </mxGeometry>
        </mxCell>
        <mxCell id="TgJmssvN7cv9_7AFx3sr-30" value="" style="shape=image;verticalLabelPosition=bottom;labelBackgroundColor=default;verticalAlign=top;aspect=fixed;imageAspect=0;editableCssRules=.*;image=data:image/svg+xml,PHN2ZyB4bWxucz0iaHR0cDovL3d3dy53My5vcmcvMjAwMC9zdmciIHZpZXdCb3g9IjAgMC4wMDIwMDAwMDAwOTQ5OTQ5MDI2IDYyLjM2MTk5OTUxMTcxODc1IDYyLjM2MjAwMzMyNjQxNjAxNiIgdmVyc2lvbj0iMS4xIiBpZD0iRWJlbmVfNSIgd2lkdGg9IjYyLjM2MTk5OTUxMTcxODc1IiBoZWlnaHQ9IjYyLjM2MjAwMzMyNjQxNjAxNiI+PGRlZnM+PHN0eWxlPi5zdDB7ZmlsbDojZmZmfTwvc3R5bGU+PC9kZWZzPjxwYXRoIHN0eWxlPSJmaWxsOiNkYTI5MWMiIGQ9Ik0zMS4zMTUgNjIuMzY0QzEzLjQ4MyA2Mi4zNjQgMCA0Ny41OTIgMCAzMS4zMTYgMCAxMi42MzUgMTUuNTU3LjAwMiAzMS4wOC4wMDJjMTguNjAyIDAgMzEuMjgyIDE1LjM0IDMxLjI4MiAzMC45NDcgMCAxOS4wNS0xNS42NTcgMzEuNDE1LTMxLjA0NyAzMS40MTUiIGlkPSJIaW50ZXJncnVuZCIvPjxwYXRoIGNsYXNzPSJzdDAiIGQ9Ik0yMi4wNDkgMzQuMTNjLS4xNjUuMjcyLS4yMzcuODk1LS4wNzEgMS4yODcgMS4zMTYgMy4xMTEgMi43MiA2LjIzNCA0LjA3NyA5LjI1NC4xNjMuMzYxLjU3Ni43OCAxLjIzNC41NDcuNTAyLS4xOC42OTItLjU1OC41ODItMS4xNTZhMi40IDIuNCAwIDAgMC0uMTg3LS41MThsLTEuMTQ0LTIuNTdxLS44MDYtMS44MDgtMS42MS0zLjYyMWExMiAxMiAwIDAgMS0uMjktLjc1bC0uMDQzLS4xMTZhLjUyLjUyIDAgMCAxIC4wNDItLjM5NC40NS40NSAwIDAgMSAuMzI3LS4yMDZjMi40MjktLjI5MiA0LjMxNi0xLjM3IDUuNzctMy4yOTMuMTY1LS4yMjIuNTI3LS4zMjIuNzM2LS4zMDQgMi4zMTYuNDA0IDQuMjYzLjE0IDUuOTg4LS44bC4wMTMtLjAwNC4wMTYtLjAxLjAwMi4wMDNjLjE4My0uMDYuNC4wMTYuNDguMTlhLjQuNCAwIDAgMSAuMDQuMTQ3aC4wMmEuNC40IDAgMCAxLS4wMzUuMTU2bC0uMzc5Ljg0NGEzNSAzNSAwIDAgMS0uODk2IDEuOTJjLS41MDUuOTgyLS4xNDYgMS4zNC4xNjkgMS41MjMuNzEuNDE0IDEuMjI3LS4xMzEgMS40NzUtLjQ5MyAxLjQ3LTIuMTM4IDIuMDE5LTQuMTUyIDEuNzI1LTYuMzM5LS4wNjctLjQ5Ny0uNTM1LTEuMTYyLTEuMDYzLTEuMzA4LS40NjQtLjEyMi0uODM5LjAyNi0xLjE4NS40NzFhNCA0IDAgMCAxLS40ODQuNTI1Yy0xLjM2NyAxLjIxNC0zLjAyNSAxLjY2Ny00LjkzIDEuMzUzLS4xNzMtLjAzLS4zNjItLjI0My0uMzcxLS40MThxLS4wMzItLjU0Ny0uMDU4LTEuMDc1Yy0uMDQ2LS44ODMtLjA5Ny0xLjg4Ni0uMi0yLjg0N2EuODQuODQgMCAwIDAtLjMxNi0uNTk3Ljc0Ljc0IDAgMCAwLS41OTItLjEyN3EtLjYzMi4xMTMtLjg2NC40NjhjLS4xNzYuMjctLjExLjU2Ni0uMDQxLjg4bC4wMy4xNDJjLjM5NiAxLjk3NC0uMTkzIDMuOTQ5LTEuNTYzIDUuMzM4LTEuMzcyIDEuMzktMy4yNTMgMS45ODMtNS4xNiAxLjYyOC0uMDg3LS4wMTctLjkxNS0uMjctMS4yNDQuMjdtLTE0LjAzLTQuNDI0Yy0uMzIgMC0uNTg2LjE2My0uNzcuNDgtLjM3Mi42NC0uMDI4IDEuMDYyLjMyNyAxLjMwNCAzLjM3NCAyLjI4NyA2LjUwNCAyLjEyNyA5LjA3My0uNDc4LjgzLS44NDMgMS41Ny0xLjc5NCAyLjI4OC0yLjcxM3EuMzg5LS41MDEuNzg1LS45OTVhLjUuNSAwIDAgMSAuMzM3LS4xNjJjLjI2NS4wMjIuMzYzLjE4Ni4zOTQuMjU1LjExNS4yNS4yNDIuNTI3LjM4My43OTcuMjI2LjQzNC41MTQuNzE0LjgzNS44MS4yMzguMDcuNTAyLjAzMy43NTgtLjExLjY0Ny0uMzY2LjQzMS0xLjA3My4xMzctMS42MDMtLjg2OS0xLjU2LTEuMDI2LTMuMTIyLS40NjktNC42NC43MTQtMS45NDMgMi4zODctMy4zODQgNC40NzUtMy44NTMgMi4xMDUtLjQ3NCA0LjI1NS4xMjEgNS43NDggMS41OTIuMTk3LjE5Mi4zODYuMzkzLjU3Ny41OTRsLjA2Ny4wNzJxLjI0MS4yNi40ODguNTExYzEuMjczIDEuMjg4IDIuOTEgMi4wMDUgNC40MjUgMS45MSAxLjQyNS0uMDkgMi43MDItLjg2MyAzLjc5OC0yLjI5NXEuMTE0LS4xNTEuMjI3LS4zMDhjLjE5Ni0uMjcuMzk4LS41NDguNjQxLS43ODkuNDYyLS40NTcgMS4xNTYtMS4xNDcgMi4wNDQtLjY4Ny44NTIuNDQgMS42OTQuOTU1IDIuNDM2IDEuNDFsLjIzOC4xNDRjLjQxLjIxNS43OTMuNDUuNzI0LjgyOS4wMDYuMzI3LS41NDguNDgyLS45NjUuNTY0bC0uMTc0LjA0NGMtMSAuMjQ1LTEuOTk4LjQ5MS0yLjk3Mi43NjEtLjUwMi4xNC0uODI4LjMxMi0uOTcuNTEyLS41Ni43ODktMS4wMTcgMS42Ni0xLjQwMiAyLjQxNS0uMi4zOTUtLjMxNi45NDcuMjcgMS4zMzcuNTIzLjM0NS45ODYuMjU0IDEuMzgtLjI3Mi4zNjQtLjQ5LjY0LS45MzEuODQ0LTEuMzQ4LjI4LS41NzMuNjc2LS44ODQgMS4yODUtMS4wMDlhNDEgNDEgMCAwIDAgMi4zOTktLjU5M2wuNjY4LS4xNzhjLjkwNi0uMjQgMS40Ni0uODI4IDEuNjQ4LTEuNzQ4LjIwMi0uOTg4LS4yMjMtMS45OTctMS4wODUtMi41NzJhMzcgMzcgMCAwIDAtMy41Mi0yLjA4NmMtLjg1LS40MzgtLjc0LTEuMDItLjU0Ny0xLjQ4LjEwNC0uMjQ5LjQxMy0uODc2LjU3Ny0xLjExOGExLjE2IDEuMTYgMCAwIDAgLjA2LS44NzMuODQuODQgMCAwIDAtLjQ1LS41MTZjLS40OC0uMTk1LTEuMDA2LjA1Ni0xLjM0OC42NjctLjI5My41MjQtLjUzMSAxLjA3OC0uODA3IDEuNzE4LS4xNi4zNzEtLjI5LjY3OC0uNDQgMS4wMS0uNjMgMS41NTgtMi4xODkgMy4wOS0yLjg1NSAzLjc0My0uNjgzLjY3Mi0yLjA3MyAxLjA1NS0yLjkxNi41NTgtLjg2MS0uNTA1LTEuNzU4LTEuMDYzLTIuNDEtMS44Mi0xLjQ3NS0xLjcxMi0zLjU2My0yLjY5OS01Ljg3OS0yLjc3Ny0yLjQwNy0uMDgzLTQuNzcuODI2LTYuMzIzIDIuNC0uOTIuOTMxLTEuNDggMi4wOTQtMi4wMjIgMy4yMTktLjE2OC4zNDgtLjMwMi42MjYtLjQ0My45MDItMS4zMDUgMi41NTgtMi41NDUgNC44MjItNC41MSA2LjYxNC0xLjY2IDEuNTE4LTMuMzU5IDEuNzI4LTUuMzQ2LjY1N2E5IDkgMCAwIDEtLjQ5LS4yOWMtLjIyMi0uMTM2LS40NDgtLjI3Ni0uNjg4LS4zODVxLS4yODctLjEzLS41MzYtLjEzIiBpZD0iSUNPTiIvPjxwYXRoIGNsYXNzPSJzdDAiIGQ9Ik01MS44OCAzOC40OWMtLjEzLTEuOTMtMy40OC0yLjk4LTYuNjUtMi45OC0zLjE2IDAtNi41MSAxLjA1LTYuNjQgMi45OC0uMDEuMDQtLjAxLjA4LS4wMS4xMnYxMC4xOGMwIDIuMDEgMy40MyAzLjEgNi42NSAzLjEgMy4yMyAwIDYuNjYtMS4wOSA2LjY2LTMuMVYzOC42MWMwLS4wNCAwLS4wOC0uMDEtLjEybS0xLjI0IDEwLjNjMCAuNzUtMi4xMSAxLjg1LTUuNDEgMS44NXMtNS40LTEuMS01LjQtMS44NXYtMS40M2MuOTcuNTQgMi42NiAxLjEzIDUuNCAxLjEzIDIuNzcgMCA0LjQ1LS41OCA1LjQxLTEuMTJ6bTAtMi45NGMtLjQyLjM2LTEuOSAxLjM5LTUuNDEgMS4zOS0zLjQ4IDAtNC45Ny0xLjAxLTUuNC0xLjM4di0xLjg5Yy45Ny41NCAyLjY2IDEuMTMgNS40IDEuMTMgMi43NyAwIDQuNDUtLjU4IDUuNDEtMS4xMnptMC0zLjM5Yy0uNDIuMzYtMS45IDEuMzktNS40MSAxLjM5LTMuNDggMC00Ljk3LTEuMDEtNS40LTEuMzh2LTJjMS4yOC44MiAzLjM4IDEuMjUgNS40IDEuMjVzNC4xMy0uNDMgNS40MS0xLjI1em0tNS40MS0xLjk5Yy0zLjMgMC01LjQtMS4xLTUuNC0xLjg2IDAtLjc1IDIuMS0xLjg1IDUuNC0xLjg1czUuNDEgMS4xIDUuNDEgMS44NWMwIC43Ni0yLjExIDEuODYtNS40MSAxLjg2IiBpZD0iVG9ubmUiLz48L3N2Zz4=;" parent="TgJmssvN7cv9_7AFx3sr-25" vertex="1">
          <mxGeometry x="10" y="9" width="62" height="62" as="geometry" />
        </mxCell>
        <mxCell id="TgJmssvN7cv9_7AFx3sr-31" value="" style="group" parent="TgJmssvN7cv9_7AFx3sr-2" vertex="1" connectable="0">
          <mxGeometry x="820" y="190" width="200" height="80" as="geometry" />
        </mxCell>
        <mxCell id="TgJmssvN7cv9_7AFx3sr-32" value="" style="rounded=1;whiteSpace=wrap;html=1;strokeWidth=2;strokeColor=#7C7C7B;gradientDirection=south;arcSize=50;imageHeight=24;perimeterSpacing=10;" parent="TgJmssvN7cv9_7AFx3sr-31" vertex="1">
          <mxGeometry width="200" height="80" as="geometry" />
        </mxCell>
        <mxCell id="TgJmssvN7cv9_7AFx3sr-33" value="&lt;font face=&quot;Roboto&quot; style=&quot;font-size: 24px&quot;&gt;Valkey&lt;/font&gt;" style="text;strokeColor=none;fillColor=none;align=center;verticalAlign=middle;rounded=0;sketch=0;fontFamily=Montserrat;fontSource=https%3A%2F%2Ffonts.googleapis.com%2Fcss%3Ffamily%3DMontserrat;fontStyle=1;fontSize=24;spacing=0;html=1;" parent="TgJmssvN7cv9_7AFx3sr-31" vertex="1">
          <mxGeometry x="80" y="14" width="110" height="21" as="geometry" />
        </mxCell>
        <mxCell id="TgJmssvN7cv9_7AFx3sr-34" value="&lt;span style=&quot;color: rgb(218, 41, 28); font-size: 18px; font-weight: normal;&quot;&gt;&lt;font face=&quot;Roboto&quot;&gt;Database&lt;/font&gt;&lt;/span&gt;" style="text;strokeColor=none;fillColor=none;align=center;verticalAlign=middle;rounded=0;sketch=0;fontFamily=Abel;fontSource=https%3A%2F%2Ffonts.googleapis.com%2Fcss%3Ffamily%3DAbel;fontStyle=1;fontSize=16;spacing=0;html=1;" parent="TgJmssvN7cv9_7AFx3sr-31" vertex="1">
          <mxGeometry x="80" y="43" width="110" height="21" as="geometry" />
        </mxCell>
        <mxCell id="TgJmssvN7cv9_7AFx3sr-35" value="" style="endArrow=none;html=1;fontSize=20;fontColor=#E42313;strokeColor=#E42313;align=center;rounded=0;" parent="TgJmssvN7cv9_7AFx3sr-31" edge="1">
          <mxGeometry width="50" height="50" as="geometry">
            <mxPoint x="80" y="39.75" as="sourcePoint" />
            <mxPoint x="190" y="39.75" as="targetPoint" />
          </mxGeometry>
        </mxCell>
        <mxCell id="TgJmssvN7cv9_7AFx3sr-36" value="" style="shape=image;verticalLabelPosition=bottom;labelBackgroundColor=default;verticalAlign=top;aspect=fixed;imageAspect=0;editableCssRules=.*;image=data:image/svg+xml,PHN2ZyB4bWxucz0iaHR0cDovL3d3dy53My5vcmcvMjAwMC9zdmciIHZpZXdCb3g9IjAgMC4wMDIwMDAwMDAwOTQ5OTQ5MDI2IDYyLjM2MTk5OTUxMTcxODc1IDYyLjM2MjAwMzMyNjQxNjAxNiIgd2lkdGg9IjYyLjM2MTk5OTUxMTcxODc1IiBoZWlnaHQ9IjYyLjM2MjAwMzMyNjQxNjAxNiI+PGRlZnM+PHN0eWxlPi5zdDB7ZmlsbDojZmZmfS5zdDF7ZmlsbDojZGEyOTFjfTwvc3R5bGU+PC9kZWZzPjxwYXRoIGNsYXNzPSJzdDEiIGQ9Ik0zMS4zMTUgNjIuMzY0QzEzLjQ4MyA2Mi4zNjQgMCA0Ny41OTIgMCAzMS4zMTYgMCAxMi42MzUgMTUuNTU3LjAwMiAzMS4wOC4wMDJjMTguNjAyIDAgMzEuMjgyIDE1LjM0IDMxLjI4MiAzMC45NDcgMCAxOS4wNS0xNS42NTcgMzEuNDE1LTMxLjA0NyAzMS40MTUiIGlkPSJIaW50ZXJncnVuZCIvPjxnIGlkPSJJQ09OIj48cGF0aCBjbGFzcz0ic3QwIiBkPSJNMzAuNDYzIDE5LjE5MWMtLjk4MSAwLTEuNzA4LjYyNS0yLjA2IDEuMDJxLS4wMDkuMDEzLS4wMi4wMjNjLS41ODcuNTY2LTMuMTk2IDUuMzQ3LTMuNDI0IDcuNTUtLjE1IDEuNDQzLjY3OCAzLjQ1MSAxLjQ4IDUuMzk0LjUwMSAxLjIxNi44OCAyLjE2My45MDMgMi41NTFsLjA2MiA4LjFjMCAxLjMxNC42ODQgMi41MDkgMS44MyAzLjIgMS4zLjc4MSAzLjA3OC44MTggNC40My4wODNsMTAuOTM1LTYuMzQyYzMuMjktMi4xMDIgMy4yNjEtMy44ODEgMy4yMjMtNi4xMzNsLS4wMDgtMTEuMzQ0YzAtMi43MjYtLjIwNC00LjYyOC0yLjkzMi02LjE3NWwtOS4yOC00LjkxNWE4LjE4IDguMTggMCAwIDAtNy45NC0uMDRsLTguNzA3IDQuOTY2Yy0yLjM2MyAxLjMwNi00LjQ4IDIuNzU4LTQuNDggNi4xNjR2MTAuNTQ5YzAgMi45MDggMS40NTggNS42NTQgMy45MDEgNy4zNDQuMDYyLjA0NC42MDUuMzg4IDMuNTUzIDIuMjE0YS45OTkuOTk5IDAgMCAwIDEuNS0xLjA3OCAxIDEgMCAwIDAtLjQ0Ni0uNjJsLS4wMDctLjAwNS0uNjYtLjQwOWMtLjk1Ni0uNTk0LTIuNjItMS42MjUtMi43OTMtMS43NC0xLjkxMS0xLjMyMS0zLjA0OC0zLjQ1My0zLjA0OC01LjcwNnYtMTAuNTVjMC0xLjk0NS43NzUtMi45MzcgMy40Ni00LjQxOGw4LjcwNi00Ljk2NmE2LjE4IDYuMTggMCAwIDEgNS45OTkuMDQ5bDkuMjc5IDQuOTE1YzEuNjQ4LjkzNSAxLjg5NSAxLjgyOSAxLjg5NSA0LjQydjEwLjU1cTAgLjQzMy4wMS44MjdjLjAzNCAyLjEyMy4wNDcgMi45MTYtMi4yNjUgNC4zOTNsLTEwLjg3NSA2LjMwNmMtLjczNC40LTEuNzAzLjM3Ny0yLjQxOC0uMDUzYTEuNzMgMS43MyAwIDAgMS0uODYyLTEuNDgzbC0uMDAyLTYuNzg3LS4wNjItMS40Yy0uMDMxLS43MjEtLjQyLTEuNjk2LTEuMDUyLTMuMjI4LS43NTctMS44MzYtMS40My0zLjU1Ny0xLjM0LTQuNDI4LjE3Ny0xLjcxIDIuNDAzLTUuNzczIDIuNzg2LTYuMjczLjIzOC0uMzAxLjQ3OS0uNDUyLjU4Ni0uNDk2YS40LjQgMCAwIDEgLjE0Mi0uMDI4bDEuOTMyLS4wMDRoLjAwMXEuMDYzIDAgLjEyMi4wMmMuMTI1LjA0My4yNS4xNDIuNDYzLjMzNS4wMTYuMDE0LjA4Ni4wOC4xLjA5Ny40OC42MTIgMi42ODIgNC42NjYgMi44NTYgNi4zNS4xNSAxLjQ0Ny0uODkzIDMuNjQ0LTEuMzM5IDQuNTgyLS4xMDIuMjEyLS4xODEuMzgxLS4yMy40OThhMSAxIDAgMCAwIC41MyAxLjMxIDEuMDEgMS4wMSAwIDAgMCAxLjMxMy0uNTMxYy4wMzctLjA4OC4wOTYtLjIxNS4xNy0uMzcuNTg1LTEuMjI4IDEuNzU1LTMuNjg1IDEuNTQ2LTUuNjk3LS4yMy0yLjIwNS0yLjgzOC02Ljk4My0zLjQyNS03LjU0OC0uNDM0LS40MTYtMS4wODQtMS4wNDItMi4wOC0xLjA0MnoiIGlkPSJHcm91cC1jb3B5Ii8+PC9nPjxwYXRoIGNsYXNzPSJzdDEiIGQ9Ik00NS4yMyA1My4xNjVjLTMuODE3IDAtNy45MjUtMS4zNy03LjkyNS00LjM3NVYzOC42MWMwLS4wNTYgMC0uMTU3LjAxOC0uMjgzLjI2LTIuODExIDQuMjY1LTQuMDkzIDcuOTA3LTQuMDkzIDMuNjQ4IDAgNy42NTcgMS4yODEgNy45MTYgNC4wOTMuMDIuMTI2LjAyLjIyNy4wMi4yODN2MTAuMThjMCAzLjAwNi00LjExNCA0LjM3NS03LjkzNiA0LjM3NSIgaWQ9IlRvbm5lX091dGxpbmUiLz48cGF0aCBjbGFzcz0ic3QwIiBkPSJNNTEuODggMzguNDljLS4xMy0xLjkzLTMuNDgtMi45OC02LjY1LTIuOTgtMy4xNiAwLTYuNTEgMS4wNS02LjY0IDIuOTgtLjAxLjA0LS4wMS4wOC0uMDEuMTJ2MTAuMThjMCAyLjAxIDMuNDMgMy4xIDYuNjUgMy4xIDMuMjMgMCA2LjY2LTEuMDkgNi42Ni0zLjFWMzguNjFjMC0uMDQgMC0uMDgtLjAxLS4xMm0tMS4yNCAxMC4zYzAgLjc1LTIuMTEgMS44NS01LjQxIDEuODVzLTUuNC0xLjEtNS40LTEuODV2LTEuNDNjLjk3LjU0IDIuNjYgMS4xMyA1LjQgMS4xMyAyLjc3IDAgNC40NS0uNTggNS40MS0xLjEyem0wLTIuOTRjLS40Mi4zNi0xLjkgMS4zOS01LjQxIDEuMzktMy40OCAwLTQuOTctMS4wMS01LjQtMS4zOHYtMS44OWMuOTcuNTQgMi42NiAxLjEzIDUuNCAxLjEzIDIuNzcgMCA0LjQ1LS41OCA1LjQxLTEuMTJ6bTAtMy4zOWMtLjQyLjM2LTEuOSAxLjM5LTUuNDEgMS4zOS0zLjQ4IDAtNC45Ny0xLjAxLTUuNC0xLjM4di0yYzEuMjguODIgMy4zOCAxLjI1IDUuNCAxLjI1czQuMTMtLjQzIDUuNDEtMS4yNXptLTUuNDEtMS45OWMtMy4zIDAtNS40LTEuMS01LjQtMS44NiAwLS43NSAyLjEtMS44NSA1LjQtMS44NXM1LjQxIDEuMSA1LjQxIDEuODVjMCAuNzYtMi4xMSAxLjg2LTUuNDEgMS44NiIgaWQ9IlRvbm5lIi8+PC9zdmc+;" parent="TgJmssvN7cv9_7AFx3sr-31" vertex="1">
          <mxGeometry x="10" y="9" width="62" height="62" as="geometry" />
        </mxCell>
        <mxCell id="TgJmssvN7cv9_7AFx3sr-37" value="" style="group" parent="TgJmssvN7cv9_7AFx3sr-2" vertex="1" connectable="0">
          <mxGeometry x="820" y="310" width="200" height="80" as="geometry" />
        </mxCell>
        <mxCell id="TgJmssvN7cv9_7AFx3sr-38" value="" style="rounded=1;whiteSpace=wrap;html=1;strokeWidth=2;strokeColor=#7C7C7B;gradientDirection=south;arcSize=50;imageHeight=24;perimeterSpacing=10;" parent="TgJmssvN7cv9_7AFx3sr-37" vertex="1">
          <mxGeometry width="200" height="80" as="geometry" />
        </mxCell>
        <mxCell id="TgJmssvN7cv9_7AFx3sr-39" value="&lt;font face=&quot;Roboto&quot; style=&quot;font-size: 24px&quot;&gt;MySQL&lt;/font&gt;" style="text;strokeColor=none;fillColor=none;align=center;verticalAlign=middle;rounded=0;sketch=0;fontFamily=Montserrat;fontSource=https%3A%2F%2Ffonts.googleapis.com%2Fcss%3Ffamily%3DMontserrat;fontStyle=1;fontSize=24;spacing=0;html=1;" parent="TgJmssvN7cv9_7AFx3sr-37" vertex="1">
          <mxGeometry x="80" y="14" width="110" height="21" as="geometry" />
        </mxCell>
        <mxCell id="TgJmssvN7cv9_7AFx3sr-40" value="&lt;span style=&quot;color: rgb(218, 41, 28); font-size: 18px; font-weight: normal;&quot;&gt;&lt;font face=&quot;Roboto&quot;&gt;Database&lt;/font&gt;&lt;/span&gt;" style="text;strokeColor=none;fillColor=none;align=center;verticalAlign=middle;rounded=0;sketch=0;fontFamily=Abel;fontSource=https%3A%2F%2Ffonts.googleapis.com%2Fcss%3Ffamily%3DAbel;fontStyle=1;fontSize=16;spacing=0;html=1;" parent="TgJmssvN7cv9_7AFx3sr-37" vertex="1">
          <mxGeometry x="80" y="43" width="110" height="21" as="geometry" />
        </mxCell>
        <mxCell id="TgJmssvN7cv9_7AFx3sr-41" value="" style="endArrow=none;html=1;fontSize=20;fontColor=#E42313;strokeColor=#E42313;align=center;rounded=0;" parent="TgJmssvN7cv9_7AFx3sr-37" edge="1">
          <mxGeometry width="50" height="50" as="geometry">
            <mxPoint x="80" y="39.75" as="sourcePoint" />
            <mxPoint x="190" y="39.75" as="targetPoint" />
          </mxGeometry>
        </mxCell>
        <mxCell id="TgJmssvN7cv9_7AFx3sr-42" value="" style="shape=image;verticalLabelPosition=bottom;labelBackgroundColor=default;verticalAlign=top;aspect=fixed;imageAspect=0;editableCssRules=.*;image=data:image/svg+xml,PHN2ZyB4bWxucz0iaHR0cDovL3d3dy53My5vcmcvMjAwMC9zdmciIHZpZXdCb3g9IjAgMCA2Mi4zNjE5OTk1MTE3MTg3NSA2Mi4zNjE5OTk1MTE3MTg3NSIgdmVyc2lvbj0iMS4xIiBpZD0iRWJlbmVfNSIgd2lkdGg9IjYyLjM2MTk5OTUxMTcxODc1IiBoZWlnaHQ9IjYyLjM2MTk5OTUxMTcxODc1Ij48ZGVmcz48c3R5bGU+LnN0MHtmaWxsOiNmZmZ9PC9zdHlsZT48L2RlZnM+PHBhdGggc3R5bGU9ImZpbGw6I2RhMjkxYyIgZD0iTTMxLjMxNSA2Mi4zNjJDMTMuNDgzIDYyLjM2MiAwIDQ3LjU5IDAgMzEuMzE1IDAgMTIuNjMzIDE1LjU1NyAwIDMxLjA4IDBjMTguNjAyIDAgMzEuMjgyIDE1LjM0IDMxLjI4MiAzMC45NDcgMCAxOS4wNS0xNS42NTcgMzEuNDE1LTMxLjA0NyAzMS40MTUiLz48cGF0aCBjbGFzcz0ic3QwIiBkPSJNNDMuOTY2IDEyLjM4Yy0uNDI3LS4wMjQtMS41MjUgMC0zLjM1NyAxLjI4NC0uNDkuMzQzLTEuMjYxLjc1NC0xLjc2Ni45NjUtLjI2OS4wODQtLjgxNS4xMzItMS45MTguMTc4LTEuNjU3LjA2Ni0zLjAwOC40Mi00LjI3MyAxLjExNi0zLjgxOCAyLjA5Ny02LjE0NCA3LjYxLTcuMTM4IDkuOTYzbC0uMjY1LjYyYy0uMDk3LjIxNi0uMjM0LjQyNC0uNTkyLjUyMS0zLjc5Ny4xNDktNy4zNyAxLjc5Mi05LjExOSAzLjI2Mi0uMTMuMTEtLjI0Ni4yNC0uMzYyLjM3NmExIDEgMCAwIDAtLjIyNSAxLjAyMyAxIDEgMCAwIDAgLjc5Ny42NmMuMzcyLjA1Ni42ODIuMDY1IDEuMDguMDczLjc0LjAxNCAxLjc1NS4wMzIgNC40My42MjJsLjM4My4wODUtLjEwMy4zOGMtLjU5NCAyLjE5Ny0zLjM1OSA3LjU2Mi01LjAzMiA4Ljk3MmExIDEgMCAwIDAtLjEyIDEuNDA4IDEuMDMgMS4wMyAwIDAgMCAxLjQwOS4xMjFjMi4wNzgtMS43NSA2LjM0OS05LjQ1IDUuODEtMTEuNzAyLS4xMjEtLjUxMi0uNDgtLjg4NS0uOTU2LS45OThhNTMgNTMgMCAwIDAtMi41ODctLjU0OWwtMS4zMDItLjIzOCAxLjIzNC0uNDhjMS4xMDQtLjQzIDIuODI3LS45NTQgNC43NjQtMS4wMDdhMSAxIDAgMCAwIC4xNjEtLjAxN2MxLS4xOSAxLjc0Ni0uNzc2IDIuMTU1LTEuNjkybC4yODMtLjY2MmMuOTEyLTIuMTYgMy4wNDctNy4yMjQgNi4yNi04Ljk5Ljk5NC0uNTQ3IDIuMDMzLS44MTUgMy4zNjctLjg2OSAxLjM0Mi0uMDUzIDIuMTEzLS4xMTcgMi41OTUtLjMxNy43NjItLjMxNyAxLjM4Ni0uNzggMS45MzYtMS4xODcuNjU1LS40ODUgMS4xMzItLjc4MyAxLjQyLS44ODYuMjEzLS4wNjkuMjk4LS4wNy40NTQtLjA0OS40NDQuMDYxLjc1LjY1Ny4yOTQgMS4xNjgtLjI5NS4zMjYtLjU1NS41OTYtLjgyNS44NzQtMS4wNzQgMS4xMTItMi4yOSAyLjM3LTMuMzQyIDMuOTktLjc1NiAxLjM4Mi0uOTc1IDEuNjktMS43ODYgMi41MTgtLjg2Ljg3OC0uNjIgMS45NTctLjM2NyAyLjY5Mi4xMzYuMzkzLjMwNi43NzcuNDc1IDEuMTYyLjM2Mi44Mi42NzYgMS41My42IDIuMjExLS4wMjMuMTQ0LS4wODQuMzg2LS4zNzIgMS4wNjJsLS4zMTcuNzQ4LS4zNjMtLjcyOGExMSAxMSAwIDAgMC0uNTMyLS45MzJsLS4wNTYtLjA5MWE0IDQgMCAwIDEtLjItLjM1IDEgMSAwIDAgMC0xLjMzLS40NzUgMS4wMDQgMS4wMDQgMCAwIDAtLjQ3OSAxLjMzMmMuMDg2LjE3OS4yMDguMzgyLjM1Mi42MTYuNDYzLjc0OSAxLjA5NiAxLjc3MiAxLjA5NCAzLjgxNCAwIC4zNzguMjIuNzMuNTYuODk3LjM0Ny4xNy43NS4xMjcgMS4wNTQtLjEwNy40NS0uMzU0IDIuNDY3LTQuNTYyIDIuNTc2LTUuNTU1LjEzNC0xLjIyNS0uMzM4LTIuMjk3LS43NTQtMy4yNDNhMTQgMTQgMCAwIDEtLjQxNy0xLjAxNWMtLjA3LS4yLS4xLS4zMjUtLjExMi0uMzk5bC0uMDMzLS4xODcuMTMzLS4xMzdjLjkxNi0uOTQ1IDEuMjQ3LTEuNDQ3IDEuOTg4LTIuODA1LjkwOC0xLjM5NSAyLjAwNS0yLjUzIDMuMDY4LTMuNjI5bC4xMTQtLjExOHEuMzk2LS40MS43NjMtLjgwMmMuNDQ0LS40NzkuOTc3LTEuNDc1Ljc2NS0yLjYxNy0uMDU4LS4zMTYtLjIxNS0xLjczLTEuOTc1LTEuODhaIi8+PHBhdGggY2xhc3M9InN0MCIgZD0iTTMyLjYyMSAzMi43MDRhMSAxIDAgMCAwLS44NTIuNDc2Yy0uMTg1LjI5Ny00LjU2IDcuMjctOS4wNDUgMTAuMzQ5YTEgMSAwIDAgMC0uNDE4LjY0IDEgMSAwIDAgMCAuMTU4Ljc0N2MuMy40NDIuOTUxLjU2MyAxLjM5LjI2MSA0LjktMy4zNjIgOS40MjUtMTAuNjM4IDkuNjE2LTEwLjk0NmExLjAwMiAxLjAwMiAwIDAgMC0uODQ5LTEuNTI3bTE5LjI1OSA1Ljc4NGMtLjEzLTEuOTMtMy40OC0yLjk4LTYuNjUtMi45OC0zLjE2IDAtNi41MSAxLjA1LTYuNjQgMi45OC0uMDEuMDQtLjAxLjA4LS4wMS4xMnYxMC4xOGMwIDIuMDEgMy40MyAzLjEgNi42NSAzLjEgMy4yMyAwIDYuNjYtMS4wOSA2LjY2LTMuMXYtMTAuMThjMC0uMDQgMC0uMDgtLjAxLS4xMm0tMS4yNCAxMC4zYzAgLjc1LTIuMTEgMS44NS01LjQxIDEuODVzLTUuNC0xLjEtNS40LTEuODV2LTEuNDNjLjk3LjU0IDIuNjYgMS4xMyA1LjQgMS4xMyAyLjc3IDAgNC40NS0uNTggNS40MS0xLjEyem0wLTIuOTRjLS40Mi4zNi0xLjkgMS4zOS01LjQxIDEuMzktMy40OCAwLTQuOTctMS4wMS01LjQtMS4zOHYtMS44OWMuOTcuNTQgMi42NiAxLjEzIDUuNCAxLjEzIDIuNzcgMCA0LjQ1LS41OCA1LjQxLTEuMTJ6bTAtMy4zOWMtLjQyLjM2LTEuOSAxLjM5LTUuNDEgMS4zOS0zLjQ4IDAtNC45Ny0xLjAxLTUuNC0xLjM4di0yYzEuMjguODIgMy4zOCAxLjI1IDUuNCAxLjI1czQuMTMtLjQzIDUuNDEtMS4yNXptLTUuNDEtMS45OWMtMy4zIDAtNS40LTEuMS01LjQtMS44NiAwLS43NSAyLjEtMS44NSA1LjQtMS44NXM1LjQxIDEuMSA1LjQxIDEuODVjMCAuNzYtMi4xMSAxLjg2LTUuNDEgMS44NiIvPjwvc3ZnPg==;" parent="TgJmssvN7cv9_7AFx3sr-37" vertex="1">
          <mxGeometry x="10" y="9" width="62" height="62" as="geometry" />
        </mxCell>
        <mxCell id="TgJmssvN7cv9_7AFx3sr-43" value="" style="endArrow=block;html=1;strokeWidth=3;endFill=0;fontSize=20;fontColor=#E42313;targetPerimeterSpacing=10;sourcePerimeterSpacing=10;strokeColor=#DA291C;rounded=1;entryX=0;entryY=0.5;entryDx=0;entryDy=0;curved=0;" parent="TgJmssvN7cv9_7AFx3sr-2" target="TgJmssvN7cv9_7AFx3sr-26" edge="1">
          <mxGeometry width="50" height="50" relative="1" as="geometry">
            <mxPoint x="740" y="230" as="sourcePoint" />
            <mxPoint x="570" y="330" as="targetPoint" />
            <Array as="points">
              <mxPoint x="740" y="110" />
            </Array>
          </mxGeometry>
        </mxCell>
        <mxCell id="TgJmssvN7cv9_7AFx3sr-44" value="" style="endArrow=block;html=1;strokeWidth=3;endFill=0;fontSize=20;fontColor=#E42313;targetPerimeterSpacing=10;sourcePerimeterSpacing=10;strokeColor=#DA291C;rounded=0;entryX=0;entryY=0.5;entryDx=0;entryDy=0;" parent="TgJmssvN7cv9_7AFx3sr-2" target="TgJmssvN7cv9_7AFx3sr-32" edge="1">
          <mxGeometry width="50" height="50" relative="1" as="geometry">
            <mxPoint x="710" y="230" as="sourcePoint" />
            <mxPoint x="820" y="120" as="targetPoint" />
            <Array as="points" />
          </mxGeometry>
        </mxCell>
        <mxCell id="TgJmssvN7cv9_7AFx3sr-45" value="" style="endArrow=block;html=1;strokeWidth=3;endFill=0;fontSize=20;fontColor=#E42313;targetPerimeterSpacing=10;sourcePerimeterSpacing=10;strokeColor=#DA291C;rounded=1;entryX=0;entryY=0.5;entryDx=0;entryDy=0;curved=0;" parent="TgJmssvN7cv9_7AFx3sr-2" target="TgJmssvN7cv9_7AFx3sr-38" edge="1">
          <mxGeometry width="50" height="50" relative="1" as="geometry">
            <mxPoint x="740" y="230" as="sourcePoint" />
            <mxPoint x="820" y="240" as="targetPoint" />
            <Array as="points">
              <mxPoint x="740" y="350" />
            </Array>
          </mxGeometry>
        </mxCell>
        <mxCell id="TgJmssvN7cv9_7AFx3sr-46" value="" style="group" parent="TgJmssvN7cv9_7AFx3sr-2" vertex="1" connectable="0">
          <mxGeometry x="20" y="190" width="200" height="80" as="geometry" />
        </mxCell>
        <mxCell id="TgJmssvN7cv9_7AFx3sr-47" value="" style="rounded=1;whiteSpace=wrap;html=1;strokeWidth=2;strokeColor=#7C7C7B;gradientDirection=south;arcSize=50;imageHeight=24;perimeterSpacing=10;" parent="TgJmssvN7cv9_7AFx3sr-46" vertex="1">
          <mxGeometry width="200" height="80" as="geometry" />
        </mxCell>
        <mxCell id="TgJmssvN7cv9_7AFx3sr-48" value="&lt;font face=&quot;Roboto&quot; style=&quot;font-size: 24px&quot;&gt;EIP&lt;/font&gt;" style="text;strokeColor=none;fillColor=none;align=center;verticalAlign=middle;rounded=0;sketch=0;fontFamily=Montserrat;fontSource=https%3A%2F%2Ffonts.googleapis.com%2Fcss%3Ffamily%3DMontserrat;fontStyle=1;fontSize=24;spacing=0;html=1;" parent="TgJmssvN7cv9_7AFx3sr-46" vertex="1">
          <mxGeometry x="80" y="25" width="110" height="21" as="geometry" />
        </mxCell>
        <mxCell id="TgJmssvN7cv9_7AFx3sr-49" value="" style="endArrow=none;html=1;fontSize=20;fontColor=#E42313;strokeColor=#E42313;align=center;rounded=0;" parent="TgJmssvN7cv9_7AFx3sr-46" edge="1">
          <mxGeometry width="50" height="50" as="geometry">
            <mxPoint x="80" y="50.75" as="sourcePoint" />
            <mxPoint x="190" y="50.75" as="targetPoint" />
          </mxGeometry>
        </mxCell>
        <mxCell id="TgJmssvN7cv9_7AFx3sr-50" value="" style="shape=image;verticalLabelPosition=bottom;verticalAlign=top;imageAspect=0;aspect=fixed;image=data:image/svg+xml,PHN2ZyB4bWxucz0iaHR0cDovL3d3dy53My5vcmcvMjAwMC9zdmciIHZpZXdCb3g9IjAgLTAuMDAwMjE5ODgyMTc0ODYwNjg2MDYgNjIuMzc5MTIzNjg3NzQ0MTQgNjIuMzYyNDIyOTQzMTE1MjM0IiB3aWR0aD0iNjIuMzc5MTIzNjg3NzQ0MTQiIGhlaWdodD0iNjIuMzYyNDIyOTQzMTE1MjM0Ij48ZGVmcz48c3R5bGU+LmNscy0xe2ZpbGw6I2RhMjkxYzt9LmNscy0ye2ZpbGw6I2ZmZjt9PC9zdHlsZT48L2RlZnM+PGcgaWQ9IkViZW5lXzIiIGRhdGEtbmFtZT0iRWJlbmUgMiI+PHBhdGggY2xhc3M9ImNscy0xIiBkPSJNMzEuMzE0OSw2Mi4zNjIyQTMxLjM5NDUsMzEuMzk0NSwwLDAsMSwwLDMxLjMxNDhDMCwxMi42MzI5LDE1LjU1NzEsMCwzMS4wODA3LDBhMzEuMTgxMywzMS4xODEzLDAsMCwxLC4yMzQyLDYyLjM2MjJaIi8+PHBhdGggY2xhc3M9ImNscy0yIiBkPSJNNDguNzEsNDIuNTk2NGwuMDI1Niw0LjY2MDYtNC44MTQ5LTQuODE1NWExNy4yMTA2LDE3LjIxMDYsMCwwLDAtLjAyNC0yMi41NTEybDQuNzg1LTQuNzg1Ni0uMDI1Niw0LjY2LDEuOTY3OC0xLjk2NzYtLjAyMDgtNi4wMzE0LTYuMDI2Mi0uMDE0OUw0Mi42MSwxMy43MTg0bDQuNjU5LS4wMjYzLTQuNzY3Myw0Ljc2NzNhMTcuMjk5MiwxNy4yOTkyLDAsMSwwLC4wMjcsMjUuNDE0OWw0Ljc5NDMsNC43OTQzLTQuNjU5MS0uMDI1NCwxLjk2NjgsMS45NjgxLDYuMDMxNy0uMDIxMy4wMTU0LTYuMDI1NVpNMTUuNTE4NiwzMS4xNzkyQTE1LjI5OTMsMTUuMjk5MywwLDEsMSwzMC44MTc5LDQ2LjQ3ODUsMTUuMzE2NiwxNS4zMTY2LDAsMCwxLDE1LjUxODYsMzEuMTc5MloiLz48cGF0aCBjbGFzcz0iY2xzLTIiIGQ9Ik0yMC45MDc2LDI5LjA0NDlsLTEuNDU1NS4zMzMtLjQ1NjYtMS44NSwyLjUyODgtLjcxNThoMS43NHY4LjY5NzNIMjAuOTA3NloiLz48cGF0aCBjbGFzcz0iY2xzLTIiIGQ9Ik0yOC4wMjU4LDM1LjY4MjFhNC42OSw0LjY5LDAsMCwxLTEuNjktLjI3OTMsNC45NjQ4LDQuOTY0OCwwLDAsMS0xLjMyLS43NTA5bDEuMTIyNi0xLjY1OTJhMy4yNjM2LDMuMjYzNiwwLDAsMCwuODg4Mi41MjQ0LDIuNzE1NiwyLjcxNTYsMCwwLDAsLjk2MjQuMTY2LDEuNDA2NiwxLjQwNjYsMCwwLDAsMS4xNDExLS40Nzc1LDIuMzczNSwyLjM3MzUsMCwwLDAsLjQ4NzMtMS4zMTExLDIuNTQ4NiwyLjU0ODYsMCwwLDEtLjc5MTUuNTEyMiwyLjY2NjIsMi42NjYyLDAsMCwxLTEuMDM5MS4xOTE0LDMuNDAwNywzLjQwMDcsMCwwLDEtMS4xNjI2LS4xOTE0LDIuNzQ3OSwyLjc0NzksMCwwLDEtLjkyMTMtLjU0MjksMi40MTM5LDIuNDEzOSwwLDAsMS0uNjA2LS44NTc1LDIuODUyMSwyLjg1MjEsMCwwLDEtLjIxNjgtMS4xMzQ3di0uMDI0NGEzLjEzODYsMy4xMzg2LDAsMCwxLC4yNTkzLTEuMjk1NCwyLjg5ODIsMi44OTgyLDAsMCwxLC43MjE3LS45OTMyLDMuMjM2MiwzLjIzNjIsMCwwLDEsMS4wOTE4LS42MzUzLDQuMDksNC4wOSwwLDAsMSwxLjM2OTEtLjIyMjFBMy45ODgsMy45ODgsMCwwLDEsMjkuODcsMjYuOTZhMy40NjEsMy40NjEsMCwwLDEsMS4xMDQuNzUyNSwzLjM3MTksMy4zNzE5LDAsMCwxLC43NTI1LDEuMjMzNCw1LjcwNTYsNS43MDU2LDAsMCwxLC4yODM3LDEuOTYxNHYuMDI0OWE2Ljg2NDksNi44NjQ5LDAsMCwxLS4yNTczLDEuOTM3LDQuMjkxOSw0LjI5MTksMCwwLDEtLjc2MTMsMS40OTkxLDMuNDQ1MSwzLjQ0NTEsMCwwLDEtMS4yNDcuOTY3N0E0LjA0MDksNC4wNDA5LDAsMCwxLDI4LjAyNTgsMzUuNjgyMVptLjQxMzEtNC43OTg4YTEuMTkyMywxLjE5MjMsMCwwLDAsLjg5MjYtLjMyODYsMS4wOTkyLDEuMDk5MiwwLDAsMCwuMzIyNy0uOFYyOS43M2ExLjE0NTksMS4xNDU5LDAsMCwwLS4zMzQ5LS44NDM4LDEuMjIyOSwxLjIyMjksMCwwLDAtLjkwNDgtLjMzNDQsMS4xOTMsMS4xOTMsMCwwLDAtLjg5MzEuMzI4NiwxLjE0NiwxLjE0NiwwLDAsMC0uMzIyMy44MzY5di4wMjQ5YTEuMDg2NiwxLjA4NjYsMCwwLDAsLjMzNDUuODE4M0ExLjI0OSwxLjI0OSwwLDAsMCwyOC40Mzg5LDMwLjg4MzNaIi8+PHBhdGggY2xhc3M9ImNscy0yIiBkPSJNMzIuOCwzMy43MDg1bDMuMjMyNC0yLjQ2NzhhNC40NzQ0LDQuNDc0NCwwLDAsMCwuODU2NS0uODEzOSwxLjIyNzUsMS4yMjc1LDAsMCwwLC4yNTI5LS43NC44MTIyLjgxMjIsMCwwLDAtLjI2NDYtLjY0MTYsMS4wMTY4LDEuMDE2OCwwLDAsMC0uNjk3My0uMjM0NCwxLjQzLDEuNDMsMCwwLDAtLjgyLjI2NTIsNS4wNzk0LDUuMDc5NCwwLDAsMC0uODk0NS44NDUyTDMyLjg0OSwyOC41NzYyYTcuNTU3OCw3LjU1NzgsMCwwLDEsLjcwMzItLjc5LDMuODYyMywzLjg2MjMsMCwwLDEsLjc3MTUtLjU4LDMuNTksMy41OSwwLDAsMSwuOTEzLS4zNTc5LDQuNzMyLDQuNzMyLDAsMCwxLDEuMTI4OS0uMTIzLDMuOTE2MywzLjkxNjMsMCwwLDEsMS4yODkxLjIwMzEsMy4wOTQ2LDMuMDk0NiwwLDAsMSwxLjAwNDkuNTYxNSwyLjQ5OCwyLjQ5OCwwLDAsMSwuNjU0My44NywyLjY1MjEsMi42NTIxLDAsMCwxLC4yMzQ0LDEuMTE2N3YuMDI0NGEzLjAzMDYsMy4wMzA2LDAsMCwxLS4xMy45MjUzLDIuNTg3NiwyLjU4NzYsMCwwLDEtLjM4ODcuNzU4Nyw0LjE0ODEsNC4xNDgxLDAsMCwxLS42Mjg5LjY3MjRxLS4zNzA2LjMyMDktLjg1MTYuNjY2bC0xLjQ4LDEuMDM2MmgzLjU2NTR2MS45NDkySDMyLjhaIi8+PHBhdGggY2xhc3M9ImNscy0yIiBkPSJNNDAuODY3NiwzMy4xMDRINDMuMzF2Mi40MDUzSDQwLjg2NzZaIi8+PC9nPjwvc3ZnPg==" parent="TgJmssvN7cv9_7AFx3sr-46" vertex="1">
          <mxGeometry x="11" y="9" width="62" height="62" as="geometry" />
        </mxCell>
        <mxCell id="TgJmssvN7cv9_7AFx3sr-51" value="&lt;font face=&quot;Roboto&quot; style=&quot;font-size: 24px&quot;&gt;Factory Site&amp;nbsp;&lt;/font&gt;" style="text;strokeColor=none;fillColor=none;align=center;verticalAlign=middle;rounded=0;sketch=0;fontFamily=Montserrat;fontSource=https%3A%2F%2Ffonts.googleapis.com%2Fcss%3Ffamily%3DMontserrat;fontStyle=1;fontSize=24;spacing=0;html=1;" parent="TgJmssvN7cv9_7AFx3sr-2" vertex="1">
          <mxGeometry x="65" y="390" width="110" height="21" as="geometry" />
        </mxCell>
        <mxCell id="TgJmssvN7cv9_7AFx3sr-52" value="" style="shape=image;aspect=fixed;image=data:image/svg+xml,PHN2ZyB4bWxucz0iaHR0cDovL3d3dy53My5vcmcvMjAwMC9zdmciIHZpZXdCb3g9IjAgMCAzNS4wMzkxIDMzLjg5OTUiPjxkZWZzPjxzdHlsZT4uY2xzLTF7ZmlsbDpub25lO308L3N0eWxlPjwvZGVmcz48ZyBpZD0iRWJlbmVfMiIgZGF0YS1uYW1lPSJFYmVuZSAyIj48cGF0aCBkPSJNMjcuOTE4LDM4LjY3ODdIMjQuMDg3NGEuNzUuNzUsMCwxLDEsMC0xLjVIMjcuOTE4YS43NS43NSwwLDAsMSwwLDEuNVoiIHRyYW5zZm9ybT0idHJhbnNsYXRlKC0xMy42NjE0IC0xMy45NDc3KSIvPjxwYXRoIGQ9Ik0zNS4yOTQ5LDM4LjY3ODdoLTMuODNhLjc1Ljc1LDAsMCwxLDAtMS41aDMuODNhLjc1Ljc1LDAsMCwxLDAsMS41WiIgdHJhbnNmb3JtPSJ0cmFuc2xhdGUoLTEzLjY2MTQgLTEzLjk0NzcpIi8+PHBhdGggZD0iTTQ1LjEyMyw0Ni40M0gxNy4yMzg4YTIuMTYyNiwyLjE2MjYsMCwwLDEtMi4xNi0yLjE2VjMzLjczNzNsMi4wNjc5LTE2LjcxMzRhMS45MjQxLDEuOTI0MSwwLDAsMSwxLjg5Ni0xLjY1ODdoLjkwMThBMS41MjIxLDEuNTIyMSwwLDAsMSwyMS40MywxNi41NzgxbDIuNTgyNSwxNC40MzA3LDQuNzEtNC4zNDIzYS43NDIzLjc0MjMsMCwwLDEsLjEwMDYtLjA3ODEsMS41MTYsMS41MTYsMCwwLDEsMi4zNCwxLjI3NTRsLjAwNzgsMy4wODIsNS40MzI2LTQuNDAwOWEuNzEwNi43MTA2LDAsMCwxLC4xMDQ1LS4wNzE4LDEuNTE1NiwxLjUxNTYsMCwwLDEsMi4yNTg4LDEuMzIyM3YzLjE1ODJsNS45Njc3LTQuNDQ2M2ExLjUzNDQsMS41MzQ0LDAsMCwxLDIuMTQ2NS41MSwxLjUxNSwxLjUxNSwwLDAsMSwuMjAxMi43NTM5VjQ0LjI3QTIuMTYyMiwyLjE2MjIsMCwwLDEsNDUuMTIzLDQ2LjQzWk0xOS45NTcsMTcuMjA0NmMtLjA0NDItLjIyNzktLjEtLjMzOTQtLjQyMzctLjMzOTRoLS40NjI1YS40NDQ2LjQ0NDYsMCwwLDAtLjQzNzUuMzU1bC0yLjA2LDE2LjYxTDE2LjU3ODYsNDQuMjdhLjY2MDYuNjYwNiwwLDAsMCwuNjYuNjZINDUuMTIzYS42NjA2LjY2MDYsMCwwLDAsLjY2LS42NlYyNy43NzFsLTUuOTY3OCw0LjQ0NzhhMS41NywxLjU3LDAsMCwxLS44MzIuMjUwOSwxLjUxNzgsMS41MTc4LDAsMCwxLTEuNTE1Ni0xLjUxNjFMMzcuNDYsMjcuNzgxN2wtNS40MzI3LDQuNDAwOWEuNjMxMi42MzEyLDAsMCwxLS4xMDQ0LjA3MTMsMS41MTYyLDEuNTE2MiwwLDAsMS0yLjI1ODgtMS4zMjE4bC0uMDA5My0zLjA4NDQtNC43MDM2LDQuMzM1OWEuNjk2OS42OTY5LDAsMCwxLS4xLjA3NzEsMS41MDE5LDEuNTAxOSwwLDAsMS0uNTE2Ni4yMTM5LDEuNTIzMiwxLjUyMzIsMCwwLDEtMS43OTQtMS4xNzcyUzIwLjAwMTMsMTcuNDMyNSwxOS45NTcsMTcuMjA0NloiIHRyYW5zZm9ybT0idHJhbnNsYXRlKC0xMy42NjE0IC0xMy45NDc3KSIvPjxwYXRoIGQ9Ik00Mi42NTkyLDM4LjY3ODdoLTMuODNhLjc1Ljc1LDAsMCwxLDAtMS41aDMuODNhLjc1Ljc1LDAsMCwxLDAsMS41WiIgdHJhbnNmb3JtPSJ0cmFuc2xhdGUoLTEzLjY2MTQgLTEzLjk0NzcpIi8+PC9nPjxnIGlkPSJFYmVuZV80IiBkYXRhLW5hbWU9IkViZW5lIDQiPjxyZWN0IGNsYXNzPSJjbHMtMSIgd2lkdGg9IjM1LjAzOTEiIGhlaWdodD0iMzMuODk5NSIvPjwvZz48L3N2Zz4=;" parent="TgJmssvN7cv9_7AFx3sr-2" vertex="1">
          <mxGeometry x="50" y="320" width="62" height="60" as="geometry" />
        </mxCell>
      </root>
    </mxGraphModel>
  </diagram>
</mxfile>
